# Blender v2.91.0 OBJ File: 'spaceship.blend'
# www.blender.org
v -0.119371 -0.007624 -0.659913
v -0.297386 0.010477 0.752916
v -0.100421 0.056955 -0.660812
v -0.250177 0.171363 0.750677
v -0.049588 0.101031 -0.661425
v -0.123538 0.281168 0.749149
v 0.016988 0.110610 -0.661559
v 0.042322 0.305031 0.748817
v 0.078171 0.082650 -0.661170
v 0.194746 0.235375 0.749786
v 0.114535 0.026029 -0.660382
v 0.285340 0.094316 0.751749
v 0.114535 -0.041277 -0.659445
v 0.285340 -0.073362 0.754082
v 0.078171 -0.097898 -0.658657
v 0.194746 -0.214421 0.756045
v 0.016988 -0.125858 -0.658268
v 0.042322 -0.284077 0.757014
v -0.049588 -0.116280 -0.658401
v -0.123539 -0.260214 0.756682
v -0.100421 -0.072204 -0.659015
v -0.250177 -0.150408 0.755154
v -0.237454 -0.003492 -0.250972
v -0.297386 0.003492 0.250972
v -0.250177 0.164378 0.248733
v -0.199759 0.124970 -0.252759
v -0.123538 0.274183 0.247205
v -0.098642 0.212646 -0.253979
v 0.042322 0.298046 0.246873
v 0.033793 0.231700 -0.254245
v 0.194746 0.228390 0.247842
v 0.155499 0.176082 -0.253471
v 0.285340 0.087331 0.249805
v 0.227835 0.063450 -0.251903
v 0.285340 -0.080346 0.252138
v 0.227835 -0.070435 -0.250040
v 0.194746 -0.221406 0.254101
v 0.155499 -0.183067 -0.248473
v 0.042322 -0.291061 0.255071
v 0.033793 -0.238685 -0.247699
v -0.123539 -0.267198 0.254739
v -0.098642 -0.219631 -0.247964
v -0.250177 -0.157393 0.253211
v -0.199759 -0.131955 -0.249184
v 0.050369 -0.175176 5.889665
v 0.200511 0.258986 5.237092
v -0.057622 -0.175176 5.889665
v -0.207764 0.258986 5.237092
v 0.443037 -0.126272 3.370871
v 0.293759 0.560565 3.821304
v -0.450290 -0.126272 3.370871
v -0.301012 0.560565 3.821304
v -0.791514 -0.266011 4.107136
v -0.264199 0.564507 4.385017
v 0.784261 -0.266011 4.107136
v 0.256946 0.564507 4.385017
v -0.554730 0.391672 2.798107
v -0.554730 -0.495657 2.468806
v 0.529265 -0.495657 2.468806
v 0.547477 0.391672 2.798107
v 0.770460 0.525071 -0.476618
v 0.382595 0.352922 1.031355
v 0.382595 -0.363569 0.701246
v -0.389848 0.352922 1.031355
v -0.389848 -0.363569 0.701246
v 1.746512 0.150025 1.634544
v 1.746512 -0.014745 1.634544
v 1.614980 0.015288 4.803383
v 1.614980 -0.034964 4.803383
v 0.770460 0.386741 -0.476618
v -0.777713 0.525071 -0.476618
v -0.777713 0.386741 -0.476618
v 1.783577 0.569989 -1.544685
v -1.790831 0.569989 -1.544685
v -1.790831 0.652023 -1.544685
v 1.783577 0.652023 -1.544685
v 0.474757 0.533474 -1.922932
v -0.482010 0.533474 -1.922932
v -0.482010 0.588115 -1.922931
v 0.474757 0.588115 -1.922931
v 2.276119 -0.203004 -1.730224
v 2.276119 -0.235892 -1.730224
v 2.631850 -0.040716 2.002141
v 2.631850 -0.090967 2.002141
v -1.753765 0.150025 1.634544
v -1.753765 -0.014745 1.634544
v -1.622232 0.015288 4.803383
v -1.622232 -0.034964 4.803384
v -2.283371 -0.203004 -1.730224
v -2.283371 -0.235892 -1.730224
v -2.639103 -0.040716 2.002142
v -2.639103 -0.090967 2.002142
v -1.090463 0.624093 -1.010651
v -1.090463 0.530586 -1.010651
v 1.083210 0.530586 -1.010651
v 1.083210 0.624093 -1.010651
v 1.348901 0.562209 -1.733808
v 1.348901 0.643803 -1.733808
v -1.356154 0.643803 -1.733808
v -1.356154 0.562209 -1.733808
vn -0.9596 0.2815 -0.0039
vn -0.6551 0.7554 -0.0105
vn -0.1424 0.9897 -0.0138
vn 0.4157 0.9094 -0.0127
vn 0.8414 0.5403 -0.0075
vn 1.0000 -0.0000 -0.0000
vn 0.8414 -0.5403 0.0075
vn 0.4157 -0.9094 0.0127
vn -0.1424 -0.9897 0.0138
vn 0.0000 0.0139 0.9999
vn -0.6551 -0.7554 0.0105
vn -0.9596 -0.2815 0.0039
vn -0.0000 -0.0139 -0.9999
vn -0.9245 -0.2749 -0.2642
vn -0.9533 -0.2813 -0.1099
vn -0.6309 -0.7312 -0.2595
vn -0.6509 -0.7521 -0.1034
vn -0.1371 -0.9566 -0.2573
vn -0.1415 -0.9849 -0.1002
vn 0.4002 -0.8793 -0.2580
vn 0.4130 -0.9051 -0.1013
vn 0.8105 -0.5241 -0.2616
vn 0.8360 -0.5384 -0.1064
vn 0.9637 -0.0037 -0.2670
vn 0.9935 -0.0016 -0.1138
vn 0.8113 0.5173 -0.2724
vn 0.8360 0.5352 -0.1213
vn 0.4009 0.8735 -0.2762
vn 0.4130 0.9019 -0.1264
vn -0.1374 0.9510 -0.2770
vn -0.1415 0.9817 -0.1276
vn -0.6318 0.7248 -0.2746
vn -0.6509 0.7489 -0.1243
vn -0.9250 0.2677 -0.2698
vn -0.9533 0.2781 -0.1177
vn 0.0000 0.8326 0.5539
vn -0.8508 0.5229 0.0519
vn 0.0000 -0.9254 0.3789
vn 0.8549 0.4677 0.2243
vn 0.0000 -0.9825 -0.1865
vn 0.0000 0.9413 0.3375
vn 0.0000 1.0000 -0.0070
vn 0.0000 -0.9987 0.0509
vn 0.8588 0.3981 -0.3224
vn -0.9041 0.2293 0.3606
vn 0.0000 0.9866 -0.1629
vn -0.9812 0.1897 0.0359
vn 0.9596 -0.1150 0.2569
vn 0.0000 0.9998 -0.0219
vn 0.0000 -0.8434 -0.5373
vn 0.0000 -0.9972 -0.0745
vn 0.8849 -0.1620 0.4366
vn -0.1630 0.9859 -0.0368
vn -0.3781 -0.9257 0.0098
vn -0.2357 0.9697 -0.0646
vn -0.4575 0.3721 -0.8076
vn 0.4575 0.3721 -0.8076
vn 0.2357 0.9697 -0.0646
vn 0.3731 -0.9277 0.0096
vn 0.1630 0.9859 -0.0368
vn -0.8827 0.0000 0.4699
vn -0.6063 0.0000 0.7952
vn -0.9629 -0.1129 0.2451
vn 0.0000 0.9935 0.1134
vn 0.9685 -0.0000 0.2491
vn 0.6063 0.0000 0.7952
vn 0.0000 -0.9973 -0.0736
vn 0.0000 0.9986 0.0522
vn 0.2115 -0.0000 -0.9774
vn 0.0000 0.0000 -1.0000
vn -0.0000 0.9593 -0.2825
vn -0.2115 0.0000 -0.9774
vn 0.0000 -0.9887 0.1502
vn -0.8588 0.3981 -0.3224
vn 0.8508 0.5229 0.0519
vn 0.9955 0.0000 -0.0949
vn -0.9878 -0.0000 -0.1555
vn -0.0818 -0.9966 -0.0098
vn 0.9400 0.0000 0.3412
vn 0.1906 0.9804 0.0496
vn 0.9041 0.2293 0.3606
vn -0.8549 0.4677 0.2243
vn 0.9783 0.2069 0.0088
vn 0.0000 -0.0000 1.0000
vn -0.9625 -0.0944 0.2542
vn -0.9955 -0.0000 -0.0949
vn 0.9878 0.0000 -0.1555
vn 0.0818 -0.9966 -0.0098
vn -0.9400 0.0000 0.3412
vn -0.1906 0.9804 0.0496
vn -0.2449 0.9682 0.0513
vn 0.2449 0.9682 0.0513
vn 0.3080 -0.9465 -0.0963
vn -0.1057 -0.9932 0.0486
vn -0.3100 -0.9455 -0.0996
vn 0.1057 -0.9932 0.0486
vn 0.0000 0.9832 0.1823
vn -0.0000 -0.9656 -0.2601
vn 0.8629 0.0000 0.5054
vn -0.8629 0.0000 0.5054
vn 0.0000 -0.9992 0.0411
vn -0.3990 -0.0000 -0.9170
vn 0.0000 0.9991 -0.0434
vn 0.3990 0.0000 -0.9170
vn -0.1374 0.9510 -0.2771
vn 0.8827 0.0000 0.4699
vn -0.4045 -0.0000 -0.9146
vn 0.4045 -0.0000 -0.9146
vn -0.8858 -0.1453 0.4406
vn -0.9685 -0.0000 0.2491
vn 0.9629 -0.1129 0.2451
s off
f 2//1 25//1 24//1
f 4//2 27//2 25//2
f 6//3 29//3 27//3
f 8//4 31//4 29//4
f 10//5 33//5 31//5
f 12//6 35//6 33//6
f 14//7 37//7 35//7
f 16//8 39//8 37//8
f 18//9 41//9 39//9
f 16//10 12//10 8//10
f 20//11 43//11 41//11
f 22//12 24//12 43//12
f 11//13 15//13 19//13
f 21//14 23//14 1//14
f 43//15 23//15 44//15
f 19//16 44//16 21//16
f 41//17 44//17 42//17
f 17//18 42//18 19//18
f 39//19 42//19 40//19
f 38//20 17//20 15//20
f 37//21 40//21 38//21
f 36//22 15//22 13//22
f 35//23 38//23 36//23
f 34//24 13//24 11//24
f 33//25 36//25 34//25
f 32//26 11//26 9//26
f 31//27 34//27 32//27
f 30//28 9//28 7//28
f 29//29 32//29 30//29
f 5//30 30//30 7//30
f 27//31 30//31 28//31
f 3//32 28//32 5//32
f 25//33 28//33 26//33
f 1//34 26//34 3//34
f 24//35 26//35 23//35
f 46//36 47//36 45//36
f 53//37 54//37 52//37
f 51//38 59//38 49//38
f 55//39 56//39 46//39
f 51//40 55//40 53//40
f 48//41 56//41 54//41
f 52//42 56//42 50//42
f 53//43 45//43 47//43
f 49//44 50//44 55//44
f 47//45 48//45 53//45
f 50//46 57//46 52//46
f 51//47 52//47 58//47
f 50//48 59//48 60//48
f 60//49 64//49 57//49
f 65//50 70//50 63//50
f 59//51 65//51 63//51
f 57//52 88//52 58//52
f 64//53 85//53 57//53
f 58//54 88//54 86//54
f 85//55 89//55 91//55
f 86//56 64//56 65//56
f 62//57 67//57 63//57
f 66//58 83//58 81//58
f 59//59 67//59 69//59
f 62//60 60//60 66//60
f 60//61 69//61 68//61
f 93//62 74//62 94//62
f 64//63 72//63 65//63
f 62//64 71//64 64//64
f 62//65 70//65 61//65
f 96//66 73//66 76//66
f 94//67 73//67 95//67
f 96//68 75//68 93//68
f 97//69 80//69 98//69
f 77//70 79//70 80//70
f 98//71 79//71 99//71
f 100//72 79//72 78//72
f 100//73 77//73 97//73
f 52//74 51//74 53//74
f 55//75 50//75 56//75
f 81//76 84//76 82//76
f 67//77 81//77 82//77
f 69//78 67//78 84//78
f 69//79 83//79 68//79
f 83//80 66//80 68//80
f 46//81 45//81 55//81
f 53//82 48//82 54//82
f 59//83 50//83 49//83
f 61//84 72//84 70//84
f 58//85 52//85 57//85
f 92//86 89//86 90//86
f 86//87 89//87 85//87
f 88//88 92//88 86//88
f 91//89 88//89 87//89
f 91//90 87//90 85//90
f 85//91 87//91 57//91
f 66//92 60//92 68//92
f 67//93 59//93 63//93
f 84//94 67//94 82//94
f 86//95 65//95 58//95
f 92//96 90//96 86//96
f 61//97 93//97 71//97
f 72//98 95//98 70//98
f 61//99 95//99 96//99
f 71//100 94//100 72//100
f 74//101 97//101 73//101
f 74//102 99//102 100//102
f 76//103 99//103 75//103
f 73//104 98//104 76//104
f 2//1 4//1 25//1
f 4//2 6//2 27//2
f 6//3 8//3 29//3
f 8//4 10//4 31//4
f 10//5 12//5 33//5
f 12//6 14//6 35//6
f 14//7 16//7 37//7
f 16//8 18//8 39//8
f 18//9 20//9 41//9
f 6//10 4//10 2//10
f 2//10 22//10 16//10
f 22//10 20//10 16//10
f 20//10 18//10 16//10
f 16//10 14//10 12//10
f 12//10 10//10 8//10
f 8//10 6//10 16//10
f 6//10 2//10 16//10
f 20//11 22//11 43//11
f 22//12 2//12 24//12
f 21//13 1//13 3//13
f 3//13 5//13 11//13
f 5//13 7//13 11//13
f 7//13 9//13 11//13
f 11//13 13//13 15//13
f 15//13 17//13 19//13
f 19//13 21//13 11//13
f 21//13 3//13 11//13
f 21//14 44//14 23//14
f 43//15 24//15 23//15
f 19//16 42//16 44//16
f 41//17 43//17 44//17
f 17//18 40//18 42//18
f 39//19 41//19 42//19
f 38//20 40//20 17//20
f 37//21 39//21 40//21
f 36//22 38//22 15//22
f 35//23 37//23 38//23
f 34//24 36//24 13//24
f 33//25 35//25 36//25
f 32//26 34//26 11//26
f 31//27 33//27 34//27
f 30//28 32//28 9//28
f 29//29 31//29 32//29
f 5//105 28//105 30//105
f 27//31 29//31 30//31
f 3//32 26//32 28//32
f 25//33 27//33 28//33
f 1//34 23//34 26//34
f 24//35 25//35 26//35
f 46//36 48//36 47//36
f 51//38 58//38 59//38
f 51//40 49//40 55//40
f 48//41 46//41 56//41
f 52//42 54//42 56//42
f 53//43 55//43 45//43
f 50//46 60//46 57//46
f 60//49 62//49 64//49
f 65//50 72//50 70//50
f 59//51 58//51 65//51
f 57//106 87//106 88//106
f 86//107 85//107 64//107
f 62//108 66//108 67//108
f 60//109 59//109 69//109
f 93//62 75//62 74//62
f 64//110 71//110 72//110
f 62//64 61//64 71//64
f 62//111 63//111 70//111
f 96//66 95//66 73//66
f 94//67 74//67 73//67
f 96//68 76//68 75//68
f 97//69 77//69 80//69
f 77//70 78//70 79//70
f 98//71 80//71 79//71
f 100//72 99//72 79//72
f 100//73 78//73 77//73
f 81//76 83//76 84//76
f 67//77 66//77 81//77
f 69//79 84//79 83//79
f 61//84 71//84 72//84
f 92//86 91//86 89//86
f 86//87 90//87 89//87
f 91//89 92//89 88//89
f 61//97 96//97 93//97
f 72//98 94//98 95//98
f 61//99 70//99 95//99
f 71//100 93//100 94//100
f 74//101 100//101 97//101
f 74//102 75//102 99//102
f 76//103 98//103 99//103
f 73//104 97//104 98//104
